<svg width="125" height="125" viewBox="0 0 125 125" fill="none" xmlns="http://www.w3.org/2000/svg">
<circle cx="62.5" cy="62.5" r="62.5" fill="#FF5A5F"/>
<path d="M69.5469 74.4414C68.668 81.9609 65.8848 87.7715 61.1973 91.873C56.5423 95.9421 50.3411 97.9766 42.5938 97.9766C34.1953 97.9766 27.457 94.9655 22.3789 88.9434C17.3333 82.9212 14.8105 74.8646 14.8105 64.7734V57.9375C14.8105 51.3294 15.9824 45.5189 18.3262 40.5059C20.7025 35.4928 24.0553 31.6517 28.3848 28.9824C32.7142 26.2806 37.7272 24.9297 43.4238 24.9297C50.9759 24.9297 57.0306 27.0456 61.5879 31.2773C66.1452 35.4766 68.7982 41.3034 69.5469 48.7578H60.123C59.3092 43.0938 57.5352 38.9922 54.8008 36.4531C52.099 33.9141 48.3066 32.6445 43.4238 32.6445C37.4342 32.6445 32.7305 34.8581 29.3125 39.2852C25.9271 43.7122 24.2344 50.0111 24.2344 58.1816V65.0664C24.2344 72.7812 25.8457 78.9173 29.0684 83.4746C32.291 88.0319 36.7995 90.3105 42.5938 90.3105C47.8021 90.3105 51.7897 89.1387 54.5566 86.7949C57.3561 84.4186 59.2116 80.3008 60.123 74.4414H69.5469Z" fill="#F1F1F1"/>
<path d="M85.1992 65.3105C77.1589 62.9993 71.2995 60.1673 67.6211 56.8145C63.9753 53.429 62.1523 49.2624 62.1523 44.3145C62.1523 38.7155 64.3822 34.0931 68.8418 30.4473C73.334 26.7689 79.1608 24.9297 86.3223 24.9297C91.2051 24.9297 95.5508 25.8737 99.3594 27.7617C103.201 29.6497 106.163 32.2539 108.246 35.5742C110.362 38.8945 111.42 42.5241 111.42 46.4629H101.996C101.996 42.166 100.629 38.7969 97.8945 36.3555C95.1602 33.8815 91.3027 32.6445 86.3223 32.6445C81.6999 32.6445 78.0866 33.6699 75.4824 35.7207C72.9108 37.7389 71.625 40.5547 71.625 44.168C71.625 47.0651 72.8457 49.5228 75.2871 51.541C77.7611 53.5267 81.944 55.3496 87.8359 57.0098C93.7604 58.6699 98.3828 60.5091 101.703 62.5273C105.056 64.513 107.53 66.8405 109.125 69.5098C110.753 72.179 111.566 75.3203 111.566 78.9336C111.566 84.6953 109.32 89.3177 104.828 92.8008C100.336 96.2513 94.3301 97.9766 86.8105 97.9766C81.9277 97.9766 77.3704 97.0488 73.1387 95.1934C68.9069 93.3053 65.6354 90.7337 63.3242 87.4785C61.0456 84.2233 59.9062 80.5286 59.9062 76.3945H69.3301C69.3301 80.6914 70.9089 84.0931 74.0664 86.5996C77.2565 89.0736 81.5046 90.3105 86.8105 90.3105C91.7585 90.3105 95.5508 89.3014 98.1875 87.2832C100.824 85.265 102.143 82.5143 102.143 79.0312C102.143 75.5482 100.922 72.8626 98.4805 70.9746C96.0391 69.054 91.612 67.166 85.1992 65.3105Z" fill="#F1F1F1"/>
<path d="M54.0381 67.5635H36.5918L37.4678 65.7793L52.0225 65.7529C52.5146 65.7529 52.9365 65.4014 53.0244 64.915L55.04 53.6328C55.0928 53.3369 55.0137 53.0322 54.8203 52.8008C54.7247 52.6869 54.6055 52.5951 54.471 52.5319C54.3364 52.4686 54.1897 52.4354 54.041 52.4346L35.5254 52.373L35.3672 51.6289C35.2676 51.1543 34.8398 50.8086 34.3535 50.8086H29.8271C29.5529 50.8086 29.2898 50.9176 29.0959 51.1115C28.9019 51.3054 28.793 51.5685 28.793 51.8428C28.793 52.1171 28.9019 52.3801 29.0959 52.574C29.2898 52.768 29.5529 52.877 29.8271 52.877H33.5156L34.207 56.1641L35.9092 64.4053L33.7178 67.9824C33.604 68.136 33.5354 68.3184 33.5199 68.5089C33.5044 68.6995 33.5425 68.8905 33.6299 69.0605C33.8057 69.4092 34.1602 69.6289 34.5527 69.6289H36.3926C36.0003 70.1499 35.7885 70.7844 35.7891 71.4365C35.7891 73.0947 37.1367 74.4424 38.7949 74.4424C40.4531 74.4424 41.8008 73.0947 41.8008 71.4365C41.8008 70.7832 41.584 70.1475 41.1973 69.6289H45.917C45.5248 70.1499 45.3129 70.7844 45.3135 71.4365C45.3135 73.0947 46.6611 74.4424 48.3193 74.4424C49.9775 74.4424 51.3252 73.0947 51.3252 71.4365C51.3252 70.7832 51.1084 70.1475 50.7217 69.6289H54.041C54.6094 69.6289 55.0752 69.166 55.0752 68.5947C55.0735 68.3207 54.9635 68.0585 54.7692 67.8653C54.5749 67.6721 54.3121 67.5636 54.0381 67.5635ZM35.9561 54.4121L52.8252 54.4678L51.1728 63.7197L37.9219 63.7432L35.9561 54.4121ZM38.7949 72.3623C38.2852 72.3623 37.8691 71.9463 37.8691 71.4365C37.8691 70.9268 38.2852 70.5107 38.7949 70.5107C39.3047 70.5107 39.7207 70.9268 39.7207 71.4365C39.7207 71.6821 39.6232 71.9175 39.4495 72.0912C39.2759 72.2648 39.0405 72.3623 38.7949 72.3623ZM48.3193 72.3623C47.8096 72.3623 47.3936 71.9463 47.3936 71.4365C47.3936 70.9268 47.8096 70.5107 48.3193 70.5107C48.8291 70.5107 49.2451 70.9268 49.2451 71.4365C49.2451 71.6821 49.1476 71.9175 48.974 72.0912C48.8003 72.2648 48.5649 72.3623 48.3193 72.3623Z" fill="#F1F1F1"/>
</svg>
